Coordinates
version=1
nRows=22
nColumns=24
inDegrees=yes

Units are S.I. units (second, meters, Newtons, ...)
Angles are in degrees.

endheader
time	pelvis_tilt	pelvis_list	pelvis_rotation	pelvis_tx	pelvis_ty	pelvis_tz	hip_flexion_r	hip_adduction_r	hip_rotation_r	knee_angle_r	ankle_angle_r	subtalar_angle_r	mtp_angle_r	hip_flexion_l	hip_adduction_l	hip_rotation_l	knee_angle_l	ankle_angle_l	subtalar_angle_l	mtp_angle_l	lumbar_extension	lumbar_bending	lumbar_rotation
      4.05500000	     -5.56324809	      3.51795039	      5.51754561	     -0.23648042	     -0.03457046	     -0.16964533	     36.48169043	     -3.11572153	      0.30695783	    -16.86808791	      0.13331538	      6.85635717	     11.06786453	     -6.91052434	      6.09065813	     -6.52062299	    -26.74314793	     12.54962963	     21.68588641	     -5.00086394	      3.47498205	     -5.61679885	     -9.38213754
      4.06000000	     -5.58940011	      3.27018971	      5.49810460	     -0.22859067	     -0.03499795	     -0.16897017	     36.33364766	     -2.76180919	      0.13347968	    -17.48441799	     -0.38538199	      6.56211493	     11.12297963	     -6.84990628	      5.54961089	     -6.81488795	    -27.57409302	     10.99232549	     21.88295151	     -2.06469556	      3.73790001	     -5.31490625	     -9.22869706
      4.06500000	     -5.61895899	      2.98053199	      5.45464142	     -0.22068424	     -0.03534922	     -0.16828903	     36.18025497	     -2.36124474	     -0.04249082	    -18.04490303	     -1.07019976	      6.27185108	     11.32268790	     -6.74667856	      4.95264263	     -7.15179783	    -28.42671326	      9.26104019	     22.05212208	      1.05034376	      4.01063546	     -4.96162937	     -9.05306553
      4.07000000	     -5.66272727	      2.64104044	      5.37300762	     -0.21275701	     -0.03564550	     -0.16752320	     36.04483875	     -1.88131845	     -0.17495953	    -18.58570617	     -1.82268997	      5.97678112	     11.29782332	     -6.58709289	      4.28136654	     -7.54975129	    -29.31020007	      7.38957387	     22.24905390	      4.28967377	      4.31240369	     -4.55543406	     -8.81582101
      4.07500000	     -5.72118715	      2.26242305	      5.27415495	     -0.20488552	     -0.03588093	     -0.16671614	     35.93105565	     -1.34836443	     -0.24664759	    -19.10398406	     -2.63958497	      5.71970872	     11.18033483	     -6.35327115	      3.55219089	     -7.97028348	    -30.24450680	      5.35396782	     22.41713512	      7.64789438	      4.62367852	     -4.10475473	     -8.53900877
      4.08000000	     -5.80578280	      1.83961751	      5.14921128	     -0.19698195	     -0.03607113	     -0.16584730	     35.84550108	     -0.74501615	     -0.23576235	    -19.61193155	     -3.46823573	      5.47855355	     10.91541404	     -6.04909558	      2.75863171	     -8.41902743	    -31.21345464	      3.16181053	     22.56277507	     10.96086826	      4.97878132	     -3.61400481	     -8.23986202
      4.08500000	     -5.94084822	      1.40123922	      4.96523790	     -0.18907528	     -0.03628010	     -0.16486786	     35.81862869	     -0.05402836	      0.04212537	    -20.12113565	     -4.37707315	      5.03860891	     10.48393545	     -5.64446239	      1.95469144	     -8.85858041	    -32.26068790	      0.91713112	     22.61963473	     13.67394361	      5.39867241	     -3.10724970	     -7.87007847
      4.09000000	     -6.08266561	      0.92952402	      4.83741972	     -0.18124175	     -0.03644566	     -0.16396913	     35.81492920	      0.61977192	      0.17674663	    -20.67180991	     -5.13575209	      4.85580935	     10.07781996	     -5.16545728	      1.09371781	     -9.24511502	    -33.33026691	     -1.60070184	     22.59314135	     16.86392243	      5.80292074	     -2.56796153	     -7.56208881
      4.09500000	     -6.19154503	      0.45976516	      4.68816285	     -0.17342330	     -0.03656798	     -0.16308813	     35.78348753	      1.31084569	      0.37449417	    -21.25478072	     -5.78511452	      4.73211173	      9.69729219	     -4.68290788	      0.24653859	     -9.57054449	    -34.43827104	     -4.23706240	     22.40894206	     19.59503603	      6.16852637	     -2.01985861	     -7.23711498
      4.10000000	     -6.30775925	     -0.01683468	      4.52370692	     -0.16561260	     -0.03672077	     -0.16220183	     35.76447863	      2.02272316	      0.61004792	    -21.86407438	     -6.31641534	      4.62921103	      9.36241570	     -4.14086118	     -0.60388806	     -9.86189902	    -35.60931280	     -6.95885261	     22.10789311	     21.87981490	      6.54157518	     -1.46224608	     -6.90530970
      4.10500000	     -6.48381748	     -0.51636855	      4.35538400	     -0.15781901	     -0.03697115	     -0.16129787	     35.80395978	      2.76875107	      0.88628846	    -22.47116150	     -6.80872682	      4.38865179	      9.05193303	     -3.46145852	     -1.47018575	    -10.09768708	    -36.90103998	     -9.64825482	     21.70766086	     23.37488635	      6.97628819	     -0.88660846	     -6.57959247
      4.11000000	     -6.60940548	     -0.95641436	      4.23836493	     -0.15018333	     -0.03714520	     -0.16050160	     35.77280340	      3.44019798	      1.20085735	    -23.06444365	     -7.23149100	      3.96205898	      8.80023320	     -2.75010036	     -2.22243146	    -10.14460272	    -38.30856105	    -12.32337336	     20.96451018	     23.50092592	      7.32203616	     -0.38044818	     -6.33481009
      4.11500000	     -6.78252034	     -1.42761272	      4.01023025	     -0.14256730	     -0.03746944	     -0.15957430	     35.79985144	      4.20255939	      1.58037373	    -23.66206395	     -7.55569714	      3.58730534	      8.58814558	     -1.96326737	     -3.02029201	    -10.34817272	    -39.69799394	    -15.18247111	     20.04177045	     24.15829466	      7.70664073	      0.17558954	     -6.02546894
      4.12000000	     -6.79283138	     -1.96202943	      3.85906638	     -0.13493632	     -0.03759423	     -0.15887858	     35.58791138	      4.95694700	      1.70941446	    -24.16312919	     -7.69250023	      3.26518342	      8.50084692	     -1.29141388	     -3.84634676	    -10.38807659	    -41.16350867	    -17.90694904	     18.84425268	     23.61032018	      7.92181238	      0.81993153	     -5.74926563
      4.12500000	     -6.90474793	     -2.37542427	      3.64444419	     -0.12755756	     -0.03782323	     -0.15798557	     35.50308047	      5.66570345	      2.06627237	    -24.68664713	     -7.90462801	      2.65412044	      8.35933272	     -0.45580887	     -4.50488434	    -10.39479287	    -42.63461876	    -20.75539118	     17.35693577	     22.81258040	      8.18575148	      1.31326156	     -5.45548863
      4.13000000	     -7.00355282	     -2.83370395	      3.41255761	     -0.12020025	     -0.03807707	     -0.15709951	     35.37032919	      6.41716455	      2.34680445	    -25.15053453	     -8.00241809	      2.07448186	      8.32247918	      0.41540046	     -5.20897331	    -10.44488142	    -44.16424623	    -23.48428846	     15.65910549	     21.54833107	      8.43158421	      1.85674884	     -5.15950277
      4.13500000	     -7.20404112	     -3.29885436	      3.09560739	     -0.11290442	     -0.03852479	     -0.15617276	     35.33755568	      7.20048818	      2.63669496	    -25.56766874	     -8.06779731	      1.53616535	      8.68325654	      1.47580089	     -5.90962646	    -10.58995691	    -45.94630463	    -25.50225002	     13.97590113	     18.13592446	      8.77602985	      2.42632050	     -4.77315006
      4.14000000	     -7.23839760	     -3.79319875	      2.83550092	     -0.10572714	     -0.03871994	     -0.15528632	     35.06495660	      8.00223560	      2.89258671	    -25.89489653	     -8.05697916	      0.94390952	      8.87029361	      2.39452768	     -6.63302385	    -10.65522605	    -47.67723461	    -27.44067758	     12.08807508	     14.77998170	      8.91718100	      3.02203486	     -4.47961664
      4.14500000	     -7.29948412	     -4.28966157	      2.56745512	     -0.09865911	     -0.03892449	     -0.15438024	     34.79403872	      8.81109320	      3.15766650	    -26.17249407	     -7.98773328	      0.36561964	      9.04475024	      3.39402561	     -7.34860273	    -10.71586407	    -49.45674156	    -29.02941057	     10.11430981	     10.96768078	      9.06589279	      3.61203419	     -4.18076557
      4.15000000	     -7.33492747	     -4.79873000	      2.29170755	     -0.09166046	     -0.03905553	     -0.15343304	     34.46590952	      9.63658005	      3.35788478	    -26.39236345	     -7.89785067	     -0.22595827	      9.16041594	      4.40042398	     -8.07578110	    -10.76786041	    -51.26332950	    -30.14821597	      8.19406989	      6.65361852	      9.16628630	      4.20198234	     -3.91162502
      4.15500000	     -7.37536108	     -5.26738391	      1.99227151	     -0.08477102	     -0.03917126	     -0.15248358	     34.10742906	     10.45209771	      3.71928421	    -26.57655360	     -7.73132755	     -0.84007314	      9.17608974	      5.42770606	     -8.73069808	    -10.81344956	    -53.05655258	    -30.81399645	      6.20947151	      2.31491206	      9.25637267	      4.75878826	     -3.58586693
      4.16000000	     -7.40238707	     -5.74177594	      1.71579649	     -0.07796441	     -0.03918062	     -0.15156761	     33.70781957	     11.24841973	      3.98652578	    -26.70917756	     -7.55946039	     -1.42159039	      9.08469361	      6.48222615	     -9.38298920	    -10.82283720	    -54.85427016	    -30.99106666	      4.35981413	     -2.25790157	      9.32216165	      5.31194993	     -3.29352777
